<svg width="144" height="129" viewBox="0 0 144 129" fill="none" xmlns="http://www.w3.org/2000/svg">
<path fill-rule="evenodd" clip-rule="evenodd" d="M0.000583583 90.4059H14.5234C22.8008 90.4059 28.1683 84.691 32.3731 78.1293L56.2107 40.9174C63.7118 29.2081 74.631 20.3775 89.1159 20.3775H108.548V0L143.416 29.3383L108.551 58.6767V38.3011H89.1186C80.9385 38.3011 75.4109 44.1137 71.269 50.5777L47.4314 87.7897C39.7786 99.7371 29.4473 108.33 14.5262 108.33H0.00224553L0.000583583 90.4059ZM0.000583583 38.3031H14.5234C22.8008 38.3031 28.1683 44.018 32.3731 50.5797L34.5447 53.9683L45.0945 37.4988C37.7014 27.3637 27.9787 20.3755 14.5228 20.3755L0 20.3766L0.000583583 38.3031ZM108.549 70.0304V90.4048H89.1167C80.9365 90.4048 75.4089 84.5923 71.267 78.1282L69.0954 74.7396L58.5531 91.1961C65.9224 101.171 76.0727 108.331 89.1164 108.331H109.103L108.549 128.706L143.416 99.3673L108.549 70.0304Z" fill="black"/>
</svg>
